<svg width="14" height="14" viewBox="0 0 14 14" fill="none" xmlns="http://www.w3.org/2000/svg">
<path d="M7.00303 3.40623C5.01553 3.40623 3.4124 5.00935 3.4124 6.99685C3.4124 8.98435 5.01553 10.5875 7.00303 10.5875C8.99053 10.5875 10.5937 8.98435 10.5937 6.99685C10.5937 5.00935 8.99053 3.40623 7.00303 3.40623ZM7.00303 9.33123C5.71865 9.33123 4.66865 8.28435 4.66865 6.99685C4.66865 5.70935 5.71553 4.66248 7.00303 4.66248C8.29053 4.66248 9.3374 5.70935 9.3374 6.99685C9.3374 8.28435 8.2874 9.33123 7.00303 9.33123ZM11.578 3.25935C11.578 3.72498 11.203 4.09685 10.7405 4.09685C10.2749 4.09685 9.90303 3.72185 9.90303 3.25935C9.90303 2.79685 10.278 2.42185 10.7405 2.42185C11.203 2.42185 11.578 2.79685 11.578 3.25935ZM13.9562 4.10935C13.903 2.98748 13.6468 1.99373 12.8249 1.17498C12.0062 0.356225 11.0124 0.0999756 9.89053 0.0437256C8.73428 -0.0218994 5.26865 -0.0218994 4.1124 0.0437256C2.99365 0.0968506 1.9999 0.353101 1.17803 1.17185C0.356152 1.9906 0.103027 2.98435 0.0467773 4.10623C-0.0188477 5.26248 -0.0188477 8.7281 0.0467773 9.88435C0.0999023 11.0062 0.356152 12 1.17803 12.8187C1.9999 13.6375 2.99053 13.8937 4.1124 13.95C5.26865 14.0156 8.73428 14.0156 9.89053 13.95C11.0124 13.8968 12.0062 13.6406 12.8249 12.8187C13.6437 12 13.8999 11.0062 13.9562 9.88435C14.0218 8.7281 14.0218 5.2656 13.9562 4.10935ZM12.4624 11.125C12.2187 11.7375 11.7468 12.2094 11.1312 12.4562C10.2093 12.8219 8.02178 12.7375 7.00303 12.7375C5.98428 12.7375 3.79365 12.8187 2.8749 12.4562C2.2624 12.2125 1.79053 11.7406 1.54365 11.125C1.17803 10.2031 1.2624 8.0156 1.2624 6.99685C1.2624 5.9781 1.18115 3.78748 1.54365 2.86873C1.7874 2.25623 2.25928 1.78435 2.8749 1.53748C3.79678 1.17185 5.98428 1.25623 7.00303 1.25623C8.02178 1.25623 10.2124 1.17498 11.1312 1.53748C11.7437 1.78123 12.2155 2.2531 12.4624 2.86873C12.828 3.7906 12.7437 5.9781 12.7437 6.99685C12.7437 8.0156 12.828 10.2062 12.4624 11.125Z" fill="#4B5563"/>
</svg>
